<svg width="18" height="18" viewBox="0 0 18 18" fill="none" xmlns="http://www.w3.org/2000/svg">
<path d="M9.00002 0.666666C13.6 0.666666 17.3334 4.4 17.3334 9C17.3334 13.6 13.6 17.3333 9.00002 17.3333C4.40002 17.3333 0.666687 13.6 0.666687 9C0.666687 4.4 4.40002 0.666666 9.00002 0.666666ZM9.00002 12.3333C10.8442 12.3333 12.3334 10.8442 12.3334 9C12.3334 7.15583 10.8442 5.66667 9.00002 5.66667C7.15585 5.66667 5.66669 7.15583 5.66669 9C5.66669 10.8442 7.15585 12.3333 9.00002 12.3333ZM9.00002 8.16667C9.45835 8.16667 9.83335 8.54167 9.83335 9C9.83335 9.45833 9.45835 9.83333 9.00002 9.83333C8.54169 9.83333 8.16669 9.45833 8.16669 9C8.16669 8.54167 8.54169 8.16667 9.00002 8.16667Z" fill="white"/>
</svg>
