<svg width="16" height="18" viewBox="0 0 16 18" fill="none" xmlns="http://www.w3.org/2000/svg">
<path d="M7.99998 13.1667C11.0516 13.1667 13.7208 14.4792 15.1725 16.4375L13.6375 17.1633C12.4558 15.7633 10.3725 14.8333 7.99998 14.8333C5.62748 14.8333 3.54414 15.7633 2.36248 17.1633L0.828308 16.4367C2.27997 14.4783 4.94831 13.1667 7.99998 13.1667ZM7.99998 0.666664C9.10504 0.666664 10.1649 1.10565 10.9463 1.88705C11.7277 2.66845 12.1666 3.72826 12.1666 4.83333V7.33333C12.1666 8.4384 11.7277 9.49821 10.9463 10.2796C10.1649 11.061 9.10504 11.5 7.99998 11.5C6.89491 11.5 5.8351 11.061 5.0537 10.2796C4.2723 9.49821 3.83331 8.4384 3.83331 7.33333V4.83333C3.83331 3.72826 4.2723 2.66845 5.0537 1.88705C5.8351 1.10565 6.89491 0.666664 7.99998 0.666664Z" fill="#AE47FF"/>
</svg>
