<svg width="18" height="16" viewBox="0 0 18 16" fill="none" xmlns="http://www.w3.org/2000/svg">
<path d="M15.8692 1.96416C16.772 2.86682 17.2953 4.08062 17.3319 5.35673C17.3684 6.63285 16.9155 7.87462 16.0659 8.82749L8.99919 15.9042L1.93419 8.82749C1.18305 7.98413 0.739439 6.91138 0.675554 5.78382C0.611669 4.65626 0.931271 3.54026 1.58235 2.61745C2.23342 1.69464 3.17765 1.01934 4.26135 0.701452C5.34506 0.383559 6.50446 0.441788 7.55086 0.866661L4.28586 4.13166L5.46419 5.31083L9.00002 1.77499L8.98919 1.76333L9.00086 1.77416C9.953 0.921828 11.1954 0.466552 12.4728 0.50189C13.7503 0.537227 14.9656 1.06049 15.8692 1.96416Z" fill="white"/>
</svg>
