<svg width="18" height="17" viewBox="0 0 18 17" fill="none" xmlns="http://www.w3.org/2000/svg">
<path d="M3.10753 0.440826L4.28586 1.61916C3.66589 2.23756 3.17424 2.97238 2.83916 3.78139C2.50408 4.59041 2.33219 5.45767 2.33336 6.33333C2.33336 8.17499 3.07919 9.84166 4.28586 11.0475L3.10836 12.225C2.33334 11.4522 1.71866 10.5339 1.29964 9.5228C0.880619 8.51171 0.665518 7.4278 0.666694 6.33333C0.665298 5.23877 0.880216 4.15474 1.29909 3.1435C1.71797 2.13227 2.33256 1.21379 3.10753 0.440826ZM14.8925 0.440826C15.6675 1.21379 16.2821 2.13227 16.701 3.1435C17.1198 4.15474 17.3348 5.23877 17.3334 6.33333C17.3348 7.42788 17.1198 8.51192 16.701 9.52315C16.2821 10.5344 15.6675 11.4529 14.8925 12.2258L13.7142 11.0475C14.3342 10.4291 14.8258 9.69428 15.1609 8.88526C15.496 8.07625 15.6679 7.20899 15.6667 6.33333C15.6667 4.49166 14.9209 2.82499 13.7142 1.61916L14.8917 0.44166L14.8925 0.440826ZM5.46419 2.79749L6.64336 3.97666C6.33333 4.28576 6.08744 4.65309 5.91983 5.05752C5.75222 5.46196 5.6662 5.89554 5.66669 6.33333C5.66669 7.25416 6.04003 8.08749 6.64336 8.68999L5.46419 9.86916C4.99922 9.40533 4.6305 8.85417 4.37922 8.24737C4.12795 7.64057 3.99908 6.99009 4.00003 6.33333C4.00003 4.95249 4.56003 3.70249 5.46419 2.79749ZM12.5359 2.79749C13.0008 3.26133 13.3696 3.81248 13.6208 4.41928C13.8721 5.02608 14.001 5.67656 14 6.33333C14.001 6.99009 13.8721 7.64057 13.6208 8.24737C13.3696 8.85417 13.0008 9.40533 12.5359 9.86916L11.3567 8.68999C11.6667 8.38089 11.9126 8.01357 12.0802 7.60913C12.2478 7.20469 12.3339 6.77112 12.3334 6.33333C12.3339 5.89554 12.2478 5.46196 12.0802 5.05752C11.9126 4.65309 11.6667 4.28576 11.3567 3.97666L12.5359 2.79749ZM9.00003 7.99999C8.558 7.99999 8.13408 7.8244 7.82152 7.51184C7.50896 7.19928 7.33336 6.77536 7.33336 6.33333C7.33336 5.8913 7.50896 5.46738 7.82152 5.15482C8.13408 4.84226 8.558 4.66666 9.00003 4.66666C9.44205 4.66666 9.86598 4.84226 10.1785 5.15482C10.4911 5.46738 10.6667 5.8913 10.6667 6.33333C10.6667 6.77536 10.4911 7.19928 10.1785 7.51184C9.86598 7.8244 9.44205 7.99999 9.00003 7.99999ZM8.16669 9.66666H9.83336V16.3333H8.16669V9.66666Z" fill="white"/>
</svg>
