<svg width="18" height="16" viewBox="0 0 18 16" fill="none" xmlns="http://www.w3.org/2000/svg">
<path d="M9.34502 2.16667H16.5C16.721 2.16667 16.933 2.25446 17.0893 2.41074C17.2456 2.56702 17.3334 2.77899 17.3334 3V14.6667C17.3334 14.8877 17.2456 15.0996 17.0893 15.2559C16.933 15.4122 16.721 15.5 16.5 15.5H1.50002C1.27901 15.5 1.06704 15.4122 0.910765 15.2559C0.754484 15.0996 0.666687 14.8877 0.666687 14.6667V1.33333C0.666687 1.11232 0.754484 0.900358 0.910765 0.744078C1.06704 0.587797 1.27901 0.5 1.50002 0.5H7.67835L9.34502 2.16667ZM8.16669 8.875C7.74547 8.78902 7.30796 8.83545 6.91417 9.00793C6.52038 9.18042 6.1896 9.4705 5.96718 9.8384C5.74476 10.2063 5.6416 10.634 5.67185 11.0628C5.7021 11.4917 5.86428 11.9007 6.13614 12.2337C6.40801 12.5667 6.77624 12.8075 7.19034 12.923C7.60445 13.0385 8.04414 13.023 8.44912 12.8788C8.8541 12.7345 9.20453 12.4685 9.45236 12.1172C9.70018 11.7659 9.83327 11.3466 9.83335 10.9167V7.16667H12.3334V5.5H8.16669V8.875Z" fill="white"/>
</svg>
