<svg width="126" height="32" viewBox="0 0 126 32" fill="none" xmlns="http://www.w3.org/2000/svg">
<path fill-rule="evenodd" clip-rule="evenodd" d="M16 0H0V16C0 24.8366 7.16344 32 16 32C24.8366 32 32 24.8366 32 16C32 7.16344 24.8366 0 16 0ZM16 27C9.92487 27 5 22.0751 5 16C5 9.92487 9.92487 5 16 5C22.0751 5 27 9.92487 27 16C27 22.0751 22.0751 27 16 27ZM16 29C8.8203 29 3 23.1797 3 16C3 8.8203 8.8203 3 16 3C23.1797 3 29 8.8203 29 16C29 23.1797 23.1797 29 16 29ZM13 16C13 17.6569 14.3431 19 16 19C17.6569 19 19 17.6569 19 16C19 14.3431 17.6569 13 16 13C14.3431 13 13 14.3431 13 16Z" fill="white"/>
<path d="M41.6398 24V7.19999H47.3758C49.3438 7.19999 50.9598 7.55199 52.2238 8.25599C53.5038 8.94399 54.4478 9.91999 55.0558 11.184C55.6798 12.432 55.9918 13.904 55.9918 15.6C55.9918 17.296 55.6798 18.776 55.0558 20.04C54.4478 21.288 53.5038 22.264 52.2238 22.968C50.9598 23.656 49.3438 24 47.3758 24H41.6398ZM44.7118 21.36H47.2318C48.6398 21.36 49.7518 21.136 50.5678 20.688C51.3838 20.224 51.9678 19.568 52.3198 18.72C52.6718 17.856 52.8478 16.816 52.8478 15.6C52.8478 14.4 52.6718 13.368 52.3198 12.504C51.9678 11.64 51.3838 10.976 50.5678 10.512C49.7518 10.048 48.6398 9.81599 47.2318 9.81599H44.7118V21.36Z" fill="white"/>
<path d="M63.9143 24.288C62.7143 24.288 61.6503 24.032 60.7223 23.52C59.7943 23.008 59.0663 22.288 58.5383 21.36C58.0103 20.432 57.7463 19.36 57.7463 18.144C57.7463 16.912 58.0023 15.816 58.5143 14.856C59.0423 13.896 59.7623 13.152 60.6743 12.624C61.6023 12.08 62.6903 11.808 63.9383 11.808C65.1063 11.808 66.1383 12.064 67.0343 12.576C67.9303 13.088 68.6263 13.792 69.1223 14.688C69.6343 15.568 69.8903 16.552 69.8903 17.64C69.8903 17.816 69.8823 18 69.8663 18.192C69.8663 18.384 69.8583 18.584 69.8423 18.792H60.7943C60.8583 19.72 61.1783 20.448 61.7543 20.976C62.3463 21.504 63.0583 21.768 63.8903 21.768C64.5143 21.768 65.0343 21.632 65.4503 21.36C65.8823 21.072 66.2023 20.704 66.4103 20.256H69.5303C69.3063 21.008 68.9303 21.696 68.4023 22.32C67.8903 22.928 67.2503 23.408 66.4823 23.76C65.7303 24.112 64.8743 24.288 63.9143 24.288ZM63.9383 14.304C63.1863 14.304 62.5223 14.52 61.9463 14.952C61.3703 15.368 61.0023 16.008 60.8423 16.872H66.7703C66.7223 16.088 66.4343 15.464 65.9063 15C65.3783 14.536 64.7223 14.304 63.9383 14.304Z" fill="white"/>
<path d="M77.7581 24.288C76.5581 24.288 75.4941 24.032 74.5661 23.52C73.6381 23.008 72.9101 22.288 72.3821 21.36C71.8541 20.432 71.5901 19.36 71.5901 18.144C71.5901 16.912 71.8461 15.816 72.3581 14.856C72.8861 13.896 73.6061 13.152 74.5181 12.624C75.4461 12.08 76.5341 11.808 77.7821 11.808C78.9501 11.808 79.9821 12.064 80.8781 12.576C81.7741 13.088 82.4701 13.792 82.9661 14.688C83.4781 15.568 83.7341 16.552 83.7341 17.64C83.7341 17.816 83.7261 18 83.7101 18.192C83.7101 18.384 83.7021 18.584 83.6861 18.792H74.6381C74.7021 19.72 75.0221 20.448 75.5981 20.976C76.1901 21.504 76.9021 21.768 77.7341 21.768C78.3581 21.768 78.8781 21.632 79.2941 21.36C79.7261 21.072 80.0461 20.704 80.2541 20.256H83.3741C83.1501 21.008 82.7741 21.696 82.2461 22.32C81.7341 22.928 81.0941 23.408 80.3261 23.76C79.5741 24.112 78.7181 24.288 77.7581 24.288ZM77.7821 14.304C77.0301 14.304 76.3661 14.52 75.7901 14.952C75.2141 15.368 74.8461 16.008 74.6861 16.872H80.6141C80.5661 16.088 80.2781 15.464 79.7501 15C79.2221 14.536 78.5661 14.304 77.7821 14.304Z" fill="white"/>
<path d="M85.0498 24V21.528L91.1218 14.64H85.1218V12.096H94.6258V14.568L88.4578 21.456H94.7458V24H85.0498Z" fill="white"/>
<path d="M104.482 24.288C102.786 24.288 101.33 23.928 100.114 23.208C98.8982 22.472 97.9622 21.456 97.3062 20.16C96.6502 18.848 96.3222 17.336 96.3222 15.624C96.3222 13.912 96.6502 12.4 97.3062 11.088C97.9622 9.77599 98.8982 8.75199 100.114 8.01599C101.33 7.27999 102.786 6.91199 104.482 6.91199C106.498 6.91199 108.146 7.41599 109.426 8.42399C110.722 9.41599 111.53 10.816 111.85 12.624H108.466C108.258 11.712 107.81 11 107.122 10.488C106.45 9.95999 105.554 9.69599 104.434 9.69599C102.882 9.69599 101.666 10.224 100.786 11.28C99.9062 12.336 99.4662 13.784 99.4662 15.624C99.4662 17.464 99.9062 18.912 100.786 19.968C101.666 21.008 102.882 21.528 104.434 21.528C105.554 21.528 106.45 21.288 107.122 20.808C107.81 20.312 108.258 19.632 108.466 18.768H111.85C111.53 20.496 110.722 21.848 109.426 22.824C108.146 23.8 106.498 24.288 104.482 24.288Z" fill="white"/>
<path d="M119.71 24.288C118.558 24.288 117.518 24.024 116.59 23.496C115.678 22.968 114.95 22.24 114.406 21.312C113.878 20.368 113.614 19.28 113.614 18.048C113.614 16.816 113.886 15.736 114.43 14.808C114.974 13.864 115.702 13.128 116.614 12.6C117.542 12.072 118.582 11.808 119.734 11.808C120.87 11.808 121.894 12.072 122.806 12.6C123.734 13.128 124.462 13.864 124.99 14.808C125.534 15.736 125.806 16.816 125.806 18.048C125.806 19.28 125.534 20.368 124.99 21.312C124.462 22.24 123.734 22.968 122.806 23.496C121.878 24.024 120.846 24.288 119.71 24.288ZM119.71 21.624C120.51 21.624 121.206 21.328 121.798 20.736C122.39 20.128 122.686 19.232 122.686 18.048C122.686 16.864 122.39 15.976 121.798 15.384C121.206 14.776 120.518 14.472 119.734 14.472C118.918 14.472 118.214 14.776 117.622 15.384C117.046 15.976 116.758 16.864 116.758 18.048C116.758 19.232 117.046 20.128 117.622 20.736C118.214 21.328 118.91 21.624 119.71 21.624Z" fill="white"/>
</svg>
